<mxfile host="app.diagrams.net" modified="2024-03-19T21:35:18.939Z" agent="Mozilla/5.0 (Windows NT 10.0; Win64; x64) AppleWebKit/537.36 (KHTML, like Gecko) Chrome/122.0.0.0 Safari/537.36 Edg/122.0.0.0" etag="d9SkCtLZ9QXnYDdlsl-h" version="24.0.7" type="device">
  <diagram id="C5RBs43oDa-KdzZeNtuy" name="Page-1">
    <mxGraphModel dx="1386" dy="785" grid="1" gridSize="10" guides="1" tooltips="1" connect="1" arrows="1" fold="1" page="1" pageScale="1" pageWidth="827" pageHeight="1169" math="0" shadow="0">
      <root>
        <mxCell id="WIyWlLk6GJQsqaUBKTNV-0" />
        <mxCell id="WIyWlLk6GJQsqaUBKTNV-1" parent="WIyWlLk6GJQsqaUBKTNV-0" />
        <mxCell id="KxEIWe4V5l2fxoazlMC9-0" value="&lt;font style=&quot;font-size: 12px;&quot;&gt;Input: integer&lt;/font&gt;" style="shape=parallelogram;perimeter=parallelogramPerimeter;whiteSpace=wrap;html=1;fixedSize=1;" parent="WIyWlLk6GJQsqaUBKTNV-1" vertex="1">
          <mxGeometry x="350" y="210" width="180" height="50" as="geometry" />
        </mxCell>
        <mxCell id="KxEIWe4V5l2fxoazlMC9-1" value="" style="endArrow=block;html=1;rounded=0;endFill=0;exitX=0.5;exitY=1;exitDx=0;exitDy=0;entryX=0.5;entryY=0;entryDx=0;entryDy=0;" parent="WIyWlLk6GJQsqaUBKTNV-1" source="KxEIWe4V5l2fxoazlMC9-0" target="KxEIWe4V5l2fxoazlMC9-2" edge="1">
          <mxGeometry width="50" height="50" relative="1" as="geometry">
            <mxPoint x="340" y="460" as="sourcePoint" />
            <mxPoint x="440" y="290" as="targetPoint" />
          </mxGeometry>
        </mxCell>
        <mxCell id="N7y94dqXcQ02z7IW42hi-1" style="edgeStyle=orthogonalEdgeStyle;rounded=0;orthogonalLoop=1;jettySize=auto;html=1;exitX=0.5;exitY=1;exitDx=0;exitDy=0;entryX=0.5;entryY=0;entryDx=0;entryDy=0;endArrow=block;endFill=0;" parent="WIyWlLk6GJQsqaUBKTNV-1" source="KxEIWe4V5l2fxoazlMC9-2" target="KxEIWe4V5l2fxoazlMC9-3" edge="1">
          <mxGeometry relative="1" as="geometry" />
        </mxCell>
        <mxCell id="KxEIWe4V5l2fxoazlMC9-2" value="&lt;font style=&quot;font-size: 12px;&quot;&gt;Saturate input between -100 and 100&lt;/font&gt;" style="shape=process;whiteSpace=wrap;html=1;backgroundOutline=1;" parent="WIyWlLk6GJQsqaUBKTNV-1" vertex="1">
          <mxGeometry x="370" y="300" width="140" height="70" as="geometry" />
        </mxCell>
        <mxCell id="N7y94dqXcQ02z7IW42hi-5" style="edgeStyle=orthogonalEdgeStyle;rounded=0;orthogonalLoop=1;jettySize=auto;html=1;exitX=0.5;exitY=1;exitDx=0;exitDy=0;entryX=0.5;entryY=0;entryDx=0;entryDy=0;endArrow=block;endFill=0;" parent="WIyWlLk6GJQsqaUBKTNV-1" source="KxEIWe4V5l2fxoazlMC9-3" target="N7y94dqXcQ02z7IW42hi-4" edge="1">
          <mxGeometry relative="1" as="geometry" />
        </mxCell>
        <mxCell id="KxEIWe4V5l2fxoazlMC9-3" value="Calculate voltage with 5000 * (powerLevel) / 100" style="rounded=0;whiteSpace=wrap;html=1;" parent="WIyWlLk6GJQsqaUBKTNV-1" vertex="1">
          <mxGeometry x="367" y="410" width="146" height="60" as="geometry" />
        </mxCell>
        <mxCell id="N7y94dqXcQ02z7IW42hi-4" value="&lt;font style=&quot;font-size: 12px;&quot;&gt;Return voltage&lt;/font&gt;" style="shape=parallelogram;perimeter=parallelogramPerimeter;whiteSpace=wrap;html=1;fixedSize=1;" parent="WIyWlLk6GJQsqaUBKTNV-1" vertex="1">
          <mxGeometry x="350" y="510" width="180" height="50" as="geometry" />
        </mxCell>
        <mxCell id="CbkzxjsDRqAY3HD5QDOL-1" style="edgeStyle=orthogonalEdgeStyle;rounded=0;orthogonalLoop=1;jettySize=auto;html=1;entryX=0.5;entryY=0;entryDx=0;entryDy=0;" edge="1" parent="WIyWlLk6GJQsqaUBKTNV-1" source="CbkzxjsDRqAY3HD5QDOL-0" target="KxEIWe4V5l2fxoazlMC9-0">
          <mxGeometry relative="1" as="geometry" />
        </mxCell>
        <mxCell id="CbkzxjsDRqAY3HD5QDOL-0" value="Start" style="rounded=1;whiteSpace=wrap;html=1;arcSize=50;" vertex="1" parent="WIyWlLk6GJQsqaUBKTNV-1">
          <mxGeometry x="390" y="120" width="100" height="40" as="geometry" />
        </mxCell>
      </root>
    </mxGraphModel>
  </diagram>
</mxfile>
